G04 #@! TF.FileFunction,Legend,Bot*
%FSLAX46Y46*%
G04 Gerber Fmt 4.6, Leading zero omitted, Abs format (unit mm)*
G04 Created by KiCad (PCBNEW 4.0.6) date 11/03/17 18:05:41*
%MOMM*%
%LPD*%
G01*
G04 APERTURE LIST*
%ADD10C,0.100000*%
%ADD11C,0.150000*%
G04 APERTURE END LIST*
D10*
D11*
X153479524Y-98084667D02*
X153003333Y-98084667D01*
X153574762Y-98370381D02*
X153241429Y-97370381D01*
X152908095Y-98370381D01*
X152574762Y-98370381D02*
X152574762Y-97370381D01*
X152336667Y-97370381D01*
X152193809Y-97418000D01*
X152098571Y-97513238D01*
X152050952Y-97608476D01*
X152003333Y-97798952D01*
X152003333Y-97941810D01*
X152050952Y-98132286D01*
X152098571Y-98227524D01*
X152193809Y-98322762D01*
X152336667Y-98370381D01*
X152574762Y-98370381D01*
X151717619Y-97370381D02*
X151146190Y-97370381D01*
X151431905Y-98370381D02*
X151431905Y-97370381D01*
X150908095Y-97370381D02*
X150241428Y-97370381D01*
X150670000Y-98370381D01*
X149431904Y-97703714D02*
X149431904Y-98370381D01*
X149670000Y-97322762D02*
X149908095Y-98037048D01*
X149289047Y-98037048D01*
X148955714Y-97465619D02*
X148908095Y-97418000D01*
X148812857Y-97370381D01*
X148574761Y-97370381D01*
X148479523Y-97418000D01*
X148431904Y-97465619D01*
X148384285Y-97560857D01*
X148384285Y-97656095D01*
X148431904Y-97798952D01*
X149003333Y-98370381D01*
X148384285Y-98370381D01*
X147765238Y-97370381D02*
X147669999Y-97370381D01*
X147574761Y-97418000D01*
X147527142Y-97465619D01*
X147479523Y-97560857D01*
X147431904Y-97751333D01*
X147431904Y-97989429D01*
X147479523Y-98179905D01*
X147527142Y-98275143D01*
X147574761Y-98322762D01*
X147669999Y-98370381D01*
X147765238Y-98370381D01*
X147860476Y-98322762D01*
X147908095Y-98275143D01*
X147955714Y-98179905D01*
X148003333Y-97989429D01*
X148003333Y-97751333D01*
X147955714Y-97560857D01*
X147908095Y-97465619D01*
X147860476Y-97418000D01*
X147765238Y-97370381D01*
X153479524Y-99734667D02*
X153003333Y-99734667D01*
X153574762Y-100020381D02*
X153241429Y-99020381D01*
X152908095Y-100020381D01*
X152574762Y-100020381D02*
X152574762Y-99020381D01*
X152003333Y-100020381D01*
X152003333Y-99020381D01*
X151670000Y-99020381D02*
X151098571Y-99020381D01*
X151384286Y-100020381D02*
X151384286Y-99020381D01*
X150812857Y-99972762D02*
X150670000Y-100020381D01*
X150431904Y-100020381D01*
X150336666Y-99972762D01*
X150289047Y-99925143D01*
X150241428Y-99829905D01*
X150241428Y-99734667D01*
X150289047Y-99639429D01*
X150336666Y-99591810D01*
X150431904Y-99544190D01*
X150622381Y-99496571D01*
X150717619Y-99448952D01*
X150765238Y-99401333D01*
X150812857Y-99306095D01*
X150812857Y-99210857D01*
X150765238Y-99115619D01*
X150717619Y-99068000D01*
X150622381Y-99020381D01*
X150384285Y-99020381D01*
X150241428Y-99068000D01*
X149098571Y-99972762D02*
X149003333Y-100020381D01*
X148812857Y-100020381D01*
X148717618Y-99972762D01*
X148669999Y-99877524D01*
X148669999Y-99829905D01*
X148717618Y-99734667D01*
X148812857Y-99687048D01*
X148955714Y-99687048D01*
X149050952Y-99639429D01*
X149098571Y-99544190D01*
X149098571Y-99496571D01*
X149050952Y-99401333D01*
X148955714Y-99353714D01*
X148812857Y-99353714D01*
X148717618Y-99401333D01*
X147860475Y-99972762D02*
X147955713Y-100020381D01*
X148146190Y-100020381D01*
X148241428Y-99972762D01*
X148289047Y-99877524D01*
X148289047Y-99496571D01*
X148241428Y-99401333D01*
X148146190Y-99353714D01*
X147955713Y-99353714D01*
X147860475Y-99401333D01*
X147812856Y-99496571D01*
X147812856Y-99591810D01*
X148289047Y-99687048D01*
X147384285Y-99353714D02*
X147384285Y-100020381D01*
X147384285Y-99448952D02*
X147336666Y-99401333D01*
X147241428Y-99353714D01*
X147098570Y-99353714D01*
X147003332Y-99401333D01*
X146955713Y-99496571D01*
X146955713Y-100020381D01*
X146527142Y-99972762D02*
X146431904Y-100020381D01*
X146241428Y-100020381D01*
X146146189Y-99972762D01*
X146098570Y-99877524D01*
X146098570Y-99829905D01*
X146146189Y-99734667D01*
X146241428Y-99687048D01*
X146384285Y-99687048D01*
X146479523Y-99639429D01*
X146527142Y-99544190D01*
X146527142Y-99496571D01*
X146479523Y-99401333D01*
X146384285Y-99353714D01*
X146241428Y-99353714D01*
X146146189Y-99401333D01*
X145527142Y-100020381D02*
X145622380Y-99972762D01*
X145669999Y-99925143D01*
X145717618Y-99829905D01*
X145717618Y-99544190D01*
X145669999Y-99448952D01*
X145622380Y-99401333D01*
X145527142Y-99353714D01*
X145384284Y-99353714D01*
X145289046Y-99401333D01*
X145241427Y-99448952D01*
X145193808Y-99544190D01*
X145193808Y-99829905D01*
X145241427Y-99925143D01*
X145289046Y-99972762D01*
X145384284Y-100020381D01*
X145527142Y-100020381D01*
X144765237Y-100020381D02*
X144765237Y-99353714D01*
X144765237Y-99544190D02*
X144717618Y-99448952D01*
X144669999Y-99401333D01*
X144574761Y-99353714D01*
X144479522Y-99353714D01*
X153146190Y-102051333D02*
X153193810Y-102003714D01*
X153289048Y-101860857D01*
X153336667Y-101765619D01*
X153384286Y-101622762D01*
X153431905Y-101384667D01*
X153431905Y-101194190D01*
X153384286Y-100956095D01*
X153336667Y-100813238D01*
X153289048Y-100718000D01*
X153193810Y-100575143D01*
X153146190Y-100527524D01*
X152336666Y-101622762D02*
X152431904Y-101670381D01*
X152622381Y-101670381D01*
X152717619Y-101622762D01*
X152765238Y-101575143D01*
X152812857Y-101479905D01*
X152812857Y-101194190D01*
X152765238Y-101098952D01*
X152717619Y-101051333D01*
X152622381Y-101003714D01*
X152431904Y-101003714D01*
X152336666Y-101051333D01*
X152003333Y-102051333D02*
X151955714Y-102003714D01*
X151860476Y-101860857D01*
X151812857Y-101765619D01*
X151765238Y-101622762D01*
X151717619Y-101384667D01*
X151717619Y-101194190D01*
X151765238Y-100956095D01*
X151812857Y-100813238D01*
X151860476Y-100718000D01*
X151955714Y-100575143D01*
X152003333Y-100527524D01*
X150479523Y-101670381D02*
X150479523Y-100670381D01*
X150479523Y-101146571D02*
X149908094Y-101146571D01*
X149908094Y-101670381D02*
X149908094Y-100670381D01*
X149431904Y-101575143D02*
X149384285Y-101622762D01*
X149431904Y-101670381D01*
X149479523Y-101622762D01*
X149431904Y-101575143D01*
X149431904Y-101670381D01*
X148955714Y-101670381D02*
X148955714Y-100670381D01*
X148574762Y-101003714D02*
X148384286Y-101670381D01*
X148193809Y-101194190D01*
X148003333Y-101670381D01*
X147812857Y-101003714D01*
X147003333Y-101670381D02*
X147003333Y-101146571D01*
X147050952Y-101051333D01*
X147146190Y-101003714D01*
X147336667Y-101003714D01*
X147431905Y-101051333D01*
X147003333Y-101622762D02*
X147098571Y-101670381D01*
X147336667Y-101670381D01*
X147431905Y-101622762D01*
X147479524Y-101527524D01*
X147479524Y-101432286D01*
X147431905Y-101337048D01*
X147336667Y-101289429D01*
X147098571Y-101289429D01*
X147003333Y-101241810D01*
X146670000Y-101003714D02*
X146289048Y-101003714D01*
X146527143Y-100670381D02*
X146527143Y-101527524D01*
X146479524Y-101622762D01*
X146384286Y-101670381D01*
X146289048Y-101670381D01*
X145527142Y-101670381D02*
X145527142Y-101146571D01*
X145574761Y-101051333D01*
X145669999Y-101003714D01*
X145860476Y-101003714D01*
X145955714Y-101051333D01*
X145527142Y-101622762D02*
X145622380Y-101670381D01*
X145860476Y-101670381D01*
X145955714Y-101622762D01*
X146003333Y-101527524D01*
X146003333Y-101432286D01*
X145955714Y-101337048D01*
X145860476Y-101289429D01*
X145622380Y-101289429D01*
X145527142Y-101241810D01*
X151900000Y-109728096D02*
X151852381Y-109632858D01*
X151852381Y-109490001D01*
X151900000Y-109347143D01*
X151995238Y-109251905D01*
X152090476Y-109204286D01*
X152280952Y-109156667D01*
X152423810Y-109156667D01*
X152614286Y-109204286D01*
X152709524Y-109251905D01*
X152804762Y-109347143D01*
X152852381Y-109490001D01*
X152852381Y-109585239D01*
X152804762Y-109728096D01*
X152757143Y-109775715D01*
X152423810Y-109775715D01*
X152423810Y-109585239D01*
X152852381Y-110204286D02*
X151852381Y-110204286D01*
X152852381Y-110775715D01*
X151852381Y-110775715D01*
X152852381Y-111251905D02*
X151852381Y-111251905D01*
X151852381Y-111490000D01*
X151900000Y-111632858D01*
X151995238Y-111728096D01*
X152090476Y-111775715D01*
X152280952Y-111823334D01*
X152423810Y-111823334D01*
X152614286Y-111775715D01*
X152709524Y-111728096D01*
X152804762Y-111632858D01*
X152852381Y-111490000D01*
X152852381Y-111251905D01*
X150264762Y-109275714D02*
X150312381Y-109418571D01*
X150312381Y-109656667D01*
X150264762Y-109751905D01*
X150217143Y-109799524D01*
X150121905Y-109847143D01*
X150026667Y-109847143D01*
X149931429Y-109799524D01*
X149883810Y-109751905D01*
X149836190Y-109656667D01*
X149788571Y-109466190D01*
X149740952Y-109370952D01*
X149693333Y-109323333D01*
X149598095Y-109275714D01*
X149502857Y-109275714D01*
X149407619Y-109323333D01*
X149360000Y-109370952D01*
X149312381Y-109466190D01*
X149312381Y-109704286D01*
X149360000Y-109847143D01*
X150312381Y-110275714D02*
X149312381Y-110275714D01*
X149312381Y-110513809D01*
X149360000Y-110656667D01*
X149455238Y-110751905D01*
X149550476Y-110799524D01*
X149740952Y-110847143D01*
X149883810Y-110847143D01*
X150074286Y-110799524D01*
X150169524Y-110751905D01*
X150264762Y-110656667D01*
X150312381Y-110513809D01*
X150312381Y-110275714D01*
X150026667Y-111228095D02*
X150026667Y-111704286D01*
X150312381Y-111132857D02*
X149312381Y-111466190D01*
X150312381Y-111799524D01*
X147724762Y-109299524D02*
X147772381Y-109442381D01*
X147772381Y-109680477D01*
X147724762Y-109775715D01*
X147677143Y-109823334D01*
X147581905Y-109870953D01*
X147486667Y-109870953D01*
X147391429Y-109823334D01*
X147343810Y-109775715D01*
X147296190Y-109680477D01*
X147248571Y-109490000D01*
X147200952Y-109394762D01*
X147153333Y-109347143D01*
X147058095Y-109299524D01*
X146962857Y-109299524D01*
X146867619Y-109347143D01*
X146820000Y-109394762D01*
X146772381Y-109490000D01*
X146772381Y-109728096D01*
X146820000Y-109870953D01*
X147677143Y-110870953D02*
X147724762Y-110823334D01*
X147772381Y-110680477D01*
X147772381Y-110585239D01*
X147724762Y-110442381D01*
X147629524Y-110347143D01*
X147534286Y-110299524D01*
X147343810Y-110251905D01*
X147200952Y-110251905D01*
X147010476Y-110299524D01*
X146915238Y-110347143D01*
X146820000Y-110442381D01*
X146772381Y-110585239D01*
X146772381Y-110680477D01*
X146820000Y-110823334D01*
X146867619Y-110870953D01*
X147772381Y-111775715D02*
X147772381Y-111299524D01*
X146772381Y-111299524D01*
X144232381Y-109156667D02*
X145232381Y-109490000D01*
X144232381Y-109823334D01*
X145232381Y-110156667D02*
X144232381Y-110156667D01*
X144232381Y-110394762D01*
X144280000Y-110537620D01*
X144375238Y-110632858D01*
X144470476Y-110680477D01*
X144660952Y-110728096D01*
X144803810Y-110728096D01*
X144994286Y-110680477D01*
X145089524Y-110632858D01*
X145184762Y-110537620D01*
X145232381Y-110394762D01*
X145232381Y-110156667D01*
X145232381Y-111156667D02*
X144232381Y-111156667D01*
X144232381Y-111394762D01*
X144280000Y-111537620D01*
X144375238Y-111632858D01*
X144470476Y-111680477D01*
X144660952Y-111728096D01*
X144803810Y-111728096D01*
X144994286Y-111680477D01*
X145089524Y-111632858D01*
X145184762Y-111537620D01*
X145232381Y-111394762D01*
X145232381Y-111156667D01*
M02*
