M48
;DRILL file {KiCad 4.0.6} date 11/03/17 18:05:43
;FORMAT={-:-/ absolute / metric / decimal}
FMAT,2
METRIC,TZ
T1C0.400
T2C0.600
T3C0.650
T4C1.000
%
G90
G05
M71
T1
X144.78Y-100.33
X144.78Y-110.49
X145.034Y-98.806
X146.048Y-105.062
X147.955Y-104.775
X151.892Y-103.124
X152.398Y-108.872
X152.398Y-115.603
T2
X146.048Y-106.586
X146.048Y-107.856
X147.572Y-106.586
T3
X146.685Y-115.57
X147.572Y-107.856
X147.955Y-115.57
X149.225Y-115.57
X150.495Y-115.57
T4
X144.78Y-113.03
X147.32Y-113.03
X149.86Y-113.03
X152.4Y-113.03
T0
M30
