G04 #@! TF.FileFunction,Copper,L1,Top,Signal*
%FSLAX46Y46*%
G04 Gerber Fmt 4.6, Leading zero omitted, Abs format (unit mm)*
G04 Created by KiCad (PCBNEW 4.0.6) date 11/03/17 18:05:41*
%MOMM*%
%LPD*%
G01*
G04 APERTURE LIST*
%ADD10C,0.100000*%
%ADD11R,1.200000X0.900000*%
%ADD12R,1.200000X0.750000*%
%ADD13O,1.000000X1.000000*%
%ADD14O,1.000000X1.100000*%
%ADD15C,1.800000*%
%ADD16R,1.000000X2.000000*%
%ADD17R,0.720000X0.300000*%
%ADD18R,0.300000X0.720000*%
%ADD19R,2.500000X2.500000*%
%ADD20C,0.600000*%
%ADD21C,0.400000*%
%ADD22C,0.250000*%
%ADD23C,0.254000*%
G04 APERTURE END LIST*
D10*
D11*
X152736000Y-105824000D03*
X150536000Y-105824000D03*
D12*
X149540000Y-97790000D03*
X147640000Y-97790000D03*
D13*
X147572000Y-107856000D03*
D14*
X147572000Y-106586000D03*
D13*
X146048000Y-107856000D03*
D14*
X146048000Y-106586000D03*
D15*
X152400000Y-113030000D03*
X149860000Y-113030000D03*
X147320000Y-113030000D03*
X144780000Y-113030000D03*
D16*
X150495000Y-115570000D03*
X149225000Y-115570000D03*
X147955000Y-115570000D03*
X146685000Y-115570000D03*
D11*
X152736000Y-107348000D03*
X150536000Y-107348000D03*
D17*
X146690000Y-100625000D03*
X146690000Y-101275000D03*
X146690000Y-101925000D03*
X146690000Y-102575000D03*
D18*
X147615000Y-103500000D03*
X148265000Y-103500000D03*
X148915000Y-103500000D03*
X149565000Y-103500000D03*
D17*
X150490000Y-102575000D03*
X150490000Y-101925000D03*
X150490000Y-101275000D03*
X150490000Y-100625000D03*
D18*
X149565000Y-99700000D03*
X148915000Y-99700000D03*
X148265000Y-99700000D03*
X147615000Y-99700000D03*
D19*
X148590000Y-101600000D03*
D20*
X145034000Y-98806000D03*
X152398000Y-115603000D03*
X152398000Y-108872000D03*
X144780000Y-100330000D03*
X147955000Y-104775000D03*
X151892000Y-103124000D03*
X144780000Y-110490000D03*
X146048000Y-105062000D03*
D21*
X151638000Y-98806000D02*
X145034000Y-98806000D01*
X152865000Y-106045000D02*
X152865000Y-107315000D01*
X151470000Y-100625000D02*
X151470000Y-100670000D01*
X152865000Y-102065000D02*
X152865000Y-106045000D01*
X151470000Y-100670000D02*
X152865000Y-102065000D01*
X151470000Y-100625000D02*
X151638000Y-100457000D01*
X151638000Y-100457000D02*
X151638000Y-98806000D01*
X151638000Y-98298000D02*
X151130000Y-97790000D01*
X151638000Y-98806000D02*
X151638000Y-98298000D01*
X151130000Y-97790000D02*
X149540000Y-97790000D01*
X150490000Y-100625000D02*
X151470000Y-100625000D01*
X152400000Y-113030000D02*
X152400000Y-113065000D01*
X152400000Y-113065000D02*
X153160000Y-113825000D01*
X153160000Y-114841000D02*
X152398000Y-115603000D01*
X153160000Y-113825000D02*
X153160000Y-114841000D01*
X152365000Y-115570000D02*
X150495000Y-115570000D01*
X152398000Y-115603000D02*
X152365000Y-115570000D01*
X150112000Y-108872000D02*
X152398000Y-108872000D01*
X147572000Y-107856000D02*
X148080000Y-107856000D01*
X152400000Y-111160000D02*
X152400000Y-113030000D01*
X150112000Y-108872000D02*
X152400000Y-111160000D01*
X149096000Y-108872000D02*
X150112000Y-108872000D01*
X148080000Y-107856000D02*
X149096000Y-108872000D01*
X146048000Y-107856000D02*
X147572000Y-107856000D01*
X143510000Y-100965000D02*
X144145000Y-100965000D01*
X144145000Y-100965000D02*
X144780000Y-100330000D01*
X150490000Y-101275000D02*
X151059000Y-101275000D01*
X151892000Y-102108000D02*
X151892000Y-103124000D01*
X151059000Y-101275000D02*
X151892000Y-102108000D01*
X147640000Y-97790000D02*
X144780000Y-97790000D01*
X143510000Y-109220000D02*
X144780000Y-110490000D01*
X143510000Y-99060000D02*
X143510000Y-100965000D01*
X143510000Y-100965000D02*
X143510000Y-109220000D01*
X144780000Y-97790000D02*
X143510000Y-99060000D01*
D22*
X146249000Y-102575000D02*
X146690000Y-102575000D01*
X146048000Y-102776000D02*
X146249000Y-102575000D01*
X146048000Y-105062000D02*
X146048000Y-102776000D01*
X150536000Y-107348000D02*
X148334000Y-107348000D01*
X148334000Y-107348000D02*
X147572000Y-106586000D01*
X146690000Y-101925000D02*
X145853398Y-101925000D01*
X145230002Y-105768002D02*
X146048000Y-106586000D01*
X145230002Y-102548396D02*
X145230002Y-105768002D01*
X145853398Y-101925000D02*
X145230002Y-102548396D01*
X150536000Y-105824000D02*
X149604000Y-105824000D01*
X147064000Y-105570000D02*
X146048000Y-106586000D01*
X149350000Y-105570000D02*
X147064000Y-105570000D01*
X149604000Y-105824000D02*
X149350000Y-105570000D01*
X144780000Y-102362000D02*
X144780000Y-108204000D01*
X145867000Y-101275000D02*
X144780000Y-102362000D01*
X146690000Y-101275000D02*
X145867000Y-101275000D01*
X149860000Y-110744000D02*
X149860000Y-113030000D01*
X148844000Y-109728000D02*
X149860000Y-110744000D01*
X146304000Y-109728000D02*
X148844000Y-109728000D01*
X144780000Y-108204000D02*
X146304000Y-109728000D01*
X145796000Y-100625000D02*
X145755000Y-100625000D01*
X145755000Y-100625000D02*
X144272000Y-102108000D01*
X147320000Y-111506000D02*
X147320000Y-113030000D01*
X144272000Y-108458000D02*
X147320000Y-111506000D01*
X144272000Y-102108000D02*
X144272000Y-108458000D01*
X146690000Y-100625000D02*
X145796000Y-100625000D01*
D23*
G36*
X153290000Y-116290000D02*
X151630000Y-116290000D01*
X151630000Y-115855750D01*
X151471250Y-115697000D01*
X150622000Y-115697000D01*
X150622000Y-115717000D01*
X150372440Y-115717000D01*
X150372440Y-115423000D01*
X150622000Y-115423000D01*
X150622000Y-115443000D01*
X151471250Y-115443000D01*
X151630000Y-115284250D01*
X151630000Y-115264000D01*
X153290000Y-115264000D01*
X153290000Y-116290000D01*
X153290000Y-116290000D01*
G37*
X153290000Y-116290000D02*
X151630000Y-116290000D01*
X151630000Y-115855750D01*
X151471250Y-115697000D01*
X150622000Y-115697000D01*
X150622000Y-115717000D01*
X150372440Y-115717000D01*
X150372440Y-115423000D01*
X150622000Y-115423000D01*
X150622000Y-115443000D01*
X151471250Y-115443000D01*
X151630000Y-115284250D01*
X151630000Y-115264000D01*
X153290000Y-115264000D01*
X153290000Y-116290000D01*
G36*
X149471910Y-108249441D02*
X149684110Y-108394431D01*
X149936000Y-108445440D01*
X151136000Y-108445440D01*
X151371317Y-108401162D01*
X151587441Y-108262090D01*
X151635134Y-108192289D01*
X151671910Y-108249441D01*
X151884110Y-108394431D01*
X152136000Y-108445440D01*
X153290000Y-108445440D01*
X153290000Y-111918513D01*
X153214148Y-111693357D01*
X152640664Y-111483542D01*
X152030540Y-111509161D01*
X151585852Y-111693357D01*
X151499446Y-111949841D01*
X152400000Y-112850395D01*
X152414143Y-112836253D01*
X152593748Y-113015858D01*
X152579605Y-113030000D01*
X152593748Y-113044143D01*
X152414143Y-113223748D01*
X152400000Y-113209605D01*
X152385858Y-113223748D01*
X152206253Y-113044143D01*
X152220395Y-113030000D01*
X151319841Y-112129446D01*
X151169673Y-112180035D01*
X151162068Y-112161629D01*
X150730643Y-111729449D01*
X150620000Y-111683506D01*
X150620000Y-110744000D01*
X150562148Y-110453161D01*
X150397401Y-110206599D01*
X149381401Y-109190599D01*
X149134839Y-109025852D01*
X148844000Y-108968000D01*
X147699002Y-108968000D01*
X147699002Y-108823955D01*
X147873874Y-108950119D01*
X148132209Y-108843127D01*
X148467323Y-108553604D01*
X148666132Y-108157877D01*
X148630481Y-108108000D01*
X149380895Y-108108000D01*
X149471910Y-108249441D01*
X149471910Y-108249441D01*
G37*
X149471910Y-108249441D02*
X149684110Y-108394431D01*
X149936000Y-108445440D01*
X151136000Y-108445440D01*
X151371317Y-108401162D01*
X151587441Y-108262090D01*
X151635134Y-108192289D01*
X151671910Y-108249441D01*
X151884110Y-108394431D01*
X152136000Y-108445440D01*
X153290000Y-108445440D01*
X153290000Y-111918513D01*
X153214148Y-111693357D01*
X152640664Y-111483542D01*
X152030540Y-111509161D01*
X151585852Y-111693357D01*
X151499446Y-111949841D01*
X152400000Y-112850395D01*
X152414143Y-112836253D01*
X152593748Y-113015858D01*
X152579605Y-113030000D01*
X152593748Y-113044143D01*
X152414143Y-113223748D01*
X152400000Y-113209605D01*
X152385858Y-113223748D01*
X152206253Y-113044143D01*
X152220395Y-113030000D01*
X151319841Y-112129446D01*
X151169673Y-112180035D01*
X151162068Y-112161629D01*
X150730643Y-111729449D01*
X150620000Y-111683506D01*
X150620000Y-110744000D01*
X150562148Y-110453161D01*
X150397401Y-110206599D01*
X149381401Y-109190599D01*
X149134839Y-109025852D01*
X148844000Y-108968000D01*
X147699002Y-108968000D01*
X147699002Y-108823955D01*
X147873874Y-108950119D01*
X148132209Y-108843127D01*
X148467323Y-108553604D01*
X148666132Y-108157877D01*
X148630481Y-108108000D01*
X149380895Y-108108000D01*
X149471910Y-108249441D01*
G36*
X143734599Y-108995401D02*
X146462598Y-111723400D01*
X146451629Y-111727932D01*
X146049677Y-112129182D01*
X145650643Y-111729449D01*
X145086670Y-111495267D01*
X144476009Y-111494735D01*
X143911629Y-111727932D01*
X143710000Y-111929209D01*
X143710000Y-108958586D01*
X143734599Y-108995401D01*
X143734599Y-108995401D01*
G37*
X143734599Y-108995401D02*
X146462598Y-111723400D01*
X146451629Y-111727932D01*
X146049677Y-112129182D01*
X145650643Y-111729449D01*
X145086670Y-111495267D01*
X144476009Y-111494735D01*
X143911629Y-111727932D01*
X143710000Y-111929209D01*
X143710000Y-108958586D01*
X143734599Y-108995401D01*
G36*
X147572000Y-107794216D02*
X147683279Y-107772081D01*
X147719000Y-107807802D01*
X147719000Y-107983000D01*
X147699000Y-107983000D01*
X147699000Y-108003000D01*
X147445000Y-108003000D01*
X147445000Y-107983000D01*
X146175000Y-107983000D01*
X146175000Y-108003000D01*
X145921000Y-108003000D01*
X145921000Y-107983000D01*
X145901000Y-107983000D01*
X145901000Y-107764976D01*
X146048000Y-107794216D01*
X146375862Y-107729000D01*
X147244138Y-107729000D01*
X147572000Y-107794216D01*
X147572000Y-107794216D01*
G37*
X147572000Y-107794216D02*
X147683279Y-107772081D01*
X147719000Y-107807802D01*
X147719000Y-107983000D01*
X147699000Y-107983000D01*
X147699000Y-108003000D01*
X147445000Y-108003000D01*
X147445000Y-107983000D01*
X146175000Y-107983000D01*
X146175000Y-108003000D01*
X145921000Y-108003000D01*
X145921000Y-107983000D01*
X145901000Y-107983000D01*
X145901000Y-107764976D01*
X146048000Y-107794216D01*
X146375862Y-107729000D01*
X147244138Y-107729000D01*
X147572000Y-107794216D01*
G36*
X152030000Y-102410868D02*
X152030000Y-104746505D01*
X151900683Y-104770838D01*
X151684559Y-104909910D01*
X151636866Y-104979711D01*
X151600090Y-104922559D01*
X151387890Y-104777569D01*
X151136000Y-104726560D01*
X149936000Y-104726560D01*
X149700683Y-104770838D01*
X149571388Y-104854037D01*
X149350000Y-104810000D01*
X147064000Y-104810000D01*
X146963784Y-104829934D01*
X146841117Y-104533057D01*
X146808000Y-104499882D01*
X146808000Y-103372440D01*
X146817560Y-103372440D01*
X146817560Y-103860000D01*
X146861838Y-104095317D01*
X147000910Y-104311441D01*
X147213110Y-104456431D01*
X147465000Y-104507440D01*
X147765000Y-104507440D01*
X147946424Y-104473303D01*
X148115000Y-104507440D01*
X148415000Y-104507440D01*
X148596424Y-104473303D01*
X148765000Y-104507440D01*
X149065000Y-104507440D01*
X149246424Y-104473303D01*
X149415000Y-104507440D01*
X149715000Y-104507440D01*
X149950317Y-104463162D01*
X150166441Y-104324090D01*
X150311431Y-104111890D01*
X150362440Y-103860000D01*
X150362440Y-103372440D01*
X150850000Y-103372440D01*
X151085317Y-103328162D01*
X151301441Y-103189090D01*
X151446431Y-102976890D01*
X151497440Y-102725000D01*
X151497440Y-102425000D01*
X151463303Y-102243576D01*
X151497440Y-102075000D01*
X151497440Y-101878308D01*
X152030000Y-102410868D01*
X152030000Y-102410868D01*
G37*
X152030000Y-102410868D02*
X152030000Y-104746505D01*
X151900683Y-104770838D01*
X151684559Y-104909910D01*
X151636866Y-104979711D01*
X151600090Y-104922559D01*
X151387890Y-104777569D01*
X151136000Y-104726560D01*
X149936000Y-104726560D01*
X149700683Y-104770838D01*
X149571388Y-104854037D01*
X149350000Y-104810000D01*
X147064000Y-104810000D01*
X146963784Y-104829934D01*
X146841117Y-104533057D01*
X146808000Y-104499882D01*
X146808000Y-103372440D01*
X146817560Y-103372440D01*
X146817560Y-103860000D01*
X146861838Y-104095317D01*
X147000910Y-104311441D01*
X147213110Y-104456431D01*
X147465000Y-104507440D01*
X147765000Y-104507440D01*
X147946424Y-104473303D01*
X148115000Y-104507440D01*
X148415000Y-104507440D01*
X148596424Y-104473303D01*
X148765000Y-104507440D01*
X149065000Y-104507440D01*
X149246424Y-104473303D01*
X149415000Y-104507440D01*
X149715000Y-104507440D01*
X149950317Y-104463162D01*
X150166441Y-104324090D01*
X150311431Y-104111890D01*
X150362440Y-103860000D01*
X150362440Y-103372440D01*
X150850000Y-103372440D01*
X151085317Y-103328162D01*
X151301441Y-103189090D01*
X151446431Y-102976890D01*
X151497440Y-102725000D01*
X151497440Y-102425000D01*
X151463303Y-102243576D01*
X151497440Y-102075000D01*
X151497440Y-101878308D01*
X152030000Y-102410868D01*
G36*
X147787000Y-97917000D02*
X147767000Y-97917000D01*
X147767000Y-97937000D01*
X147513000Y-97937000D01*
X147513000Y-97917000D01*
X146563750Y-97917000D01*
X146509750Y-97971000D01*
X145461234Y-97971000D01*
X145220799Y-97871162D01*
X144848833Y-97870838D01*
X144505057Y-98012883D01*
X144241808Y-98275673D01*
X144099162Y-98619201D01*
X144098838Y-98991167D01*
X144240883Y-99334943D01*
X144503673Y-99598192D01*
X144847201Y-99740838D01*
X145219167Y-99741162D01*
X145461578Y-99641000D01*
X146817560Y-99641000D01*
X146817560Y-99827560D01*
X146330000Y-99827560D01*
X146131024Y-99865000D01*
X145755000Y-99865000D01*
X145464161Y-99922852D01*
X145217599Y-100087599D01*
X143734599Y-101570599D01*
X143710000Y-101607414D01*
X143710000Y-97710000D01*
X147787000Y-97710000D01*
X147787000Y-97917000D01*
X147787000Y-97917000D01*
G37*
X147787000Y-97917000D02*
X147767000Y-97917000D01*
X147767000Y-97937000D01*
X147513000Y-97937000D01*
X147513000Y-97917000D01*
X146563750Y-97917000D01*
X146509750Y-97971000D01*
X145461234Y-97971000D01*
X145220799Y-97871162D01*
X144848833Y-97870838D01*
X144505057Y-98012883D01*
X144241808Y-98275673D01*
X144099162Y-98619201D01*
X144098838Y-98991167D01*
X144240883Y-99334943D01*
X144503673Y-99598192D01*
X144847201Y-99740838D01*
X145219167Y-99741162D01*
X145461578Y-99641000D01*
X146817560Y-99641000D01*
X146817560Y-99827560D01*
X146330000Y-99827560D01*
X146131024Y-99865000D01*
X145755000Y-99865000D01*
X145464161Y-99922852D01*
X145217599Y-100087599D01*
X143734599Y-101570599D01*
X143710000Y-101607414D01*
X143710000Y-97710000D01*
X147787000Y-97710000D01*
X147787000Y-97917000D01*
M02*
