G04 #@! TF.FileFunction,Legend,Top*
%FSLAX46Y46*%
G04 Gerber Fmt 4.6, Leading zero omitted, Abs format (unit mm)*
G04 Created by KiCad (PCBNEW 4.0.6) date 11/03/17 18:05:41*
%MOMM*%
%LPD*%
G01*
G04 APERTURE LIST*
%ADD10C,0.100000*%
%ADD11C,0.120000*%
%ADD12C,0.150000*%
G04 APERTURE END LIST*
D10*
D11*
X151136000Y-105144000D02*
X152136000Y-105144000D01*
X152136000Y-106504000D02*
X151136000Y-106504000D01*
X148940000Y-98390000D02*
X148240000Y-98390000D01*
X148240000Y-97190000D02*
X148940000Y-97190000D01*
X148207000Y-108986000D02*
X148267000Y-108986000D01*
X148267000Y-108986000D02*
X148267000Y-105456000D01*
X148267000Y-105456000D02*
X146877000Y-105456000D01*
X146877000Y-105456000D02*
X146877000Y-107221000D01*
X146877000Y-107221000D02*
X148207000Y-107221000D01*
X148207000Y-107221000D02*
X148207000Y-108986000D01*
X147572000Y-108986000D02*
X146877000Y-108986000D01*
X146877000Y-108986000D02*
X146877000Y-107856000D01*
X146683000Y-108986000D02*
X146743000Y-108986000D01*
X146743000Y-108986000D02*
X146743000Y-105456000D01*
X146743000Y-105456000D02*
X145353000Y-105456000D01*
X145353000Y-105456000D02*
X145353000Y-107221000D01*
X145353000Y-107221000D02*
X146683000Y-107221000D01*
X146683000Y-107221000D02*
X146683000Y-108986000D01*
X146048000Y-108986000D02*
X145353000Y-108986000D01*
X145353000Y-108986000D02*
X145353000Y-107856000D01*
X151130000Y-111700000D02*
X143450000Y-111700000D01*
X143450000Y-111700000D02*
X143450000Y-114360000D01*
X143450000Y-114360000D02*
X151130000Y-114360000D01*
X151130000Y-114360000D02*
X151130000Y-111700000D01*
X152400000Y-111700000D02*
X153730000Y-111700000D01*
X153730000Y-111700000D02*
X153730000Y-113030000D01*
X149860000Y-114240000D02*
X145990000Y-114240000D01*
X145990000Y-114240000D02*
X145990000Y-116900000D01*
X145990000Y-116900000D02*
X149860000Y-116900000D01*
X149860000Y-116900000D02*
X149860000Y-114240000D01*
X150495000Y-114240000D02*
X151190000Y-114240000D01*
X151190000Y-114240000D02*
X151190000Y-115570000D01*
X151136000Y-106668000D02*
X152136000Y-106668000D01*
X152136000Y-108028000D02*
X151136000Y-108028000D01*
D12*
X146590000Y-99975000D02*
X146965000Y-99600000D01*
X150215000Y-99600000D02*
X150590000Y-99600000D01*
X150590000Y-99600000D02*
X150590000Y-99975000D01*
X146965000Y-103600000D02*
X146590000Y-103600000D01*
X146590000Y-103600000D02*
X146590000Y-103225000D01*
X150215000Y-103600000D02*
X150590000Y-103600000D01*
X150590000Y-103600000D02*
X150590000Y-103225000D01*
X148802334Y-106403381D02*
X148469000Y-105927190D01*
X148230905Y-106403381D02*
X148230905Y-105403381D01*
X148611858Y-105403381D01*
X148707096Y-105451000D01*
X148754715Y-105498619D01*
X148802334Y-105593857D01*
X148802334Y-105736714D01*
X148754715Y-105831952D01*
X148707096Y-105879571D01*
X148611858Y-105927190D01*
X148230905Y-105927190D01*
X149183286Y-105498619D02*
X149230905Y-105451000D01*
X149326143Y-105403381D01*
X149564239Y-105403381D01*
X149659477Y-105451000D01*
X149707096Y-105498619D01*
X149754715Y-105593857D01*
X149754715Y-105689095D01*
X149707096Y-105831952D01*
X149135667Y-106403381D01*
X149754715Y-106403381D01*
X145629334Y-98147143D02*
X145581715Y-98194762D01*
X145438858Y-98242381D01*
X145343620Y-98242381D01*
X145200762Y-98194762D01*
X145105524Y-98099524D01*
X145057905Y-98004286D01*
X145010286Y-97813810D01*
X145010286Y-97670952D01*
X145057905Y-97480476D01*
X145105524Y-97385238D01*
X145200762Y-97290000D01*
X145343620Y-97242381D01*
X145438858Y-97242381D01*
X145581715Y-97290000D01*
X145629334Y-97337619D01*
X146581715Y-98242381D02*
X146010286Y-98242381D01*
X146296000Y-98242381D02*
X146296000Y-97242381D01*
X146200762Y-97385238D01*
X146105524Y-97480476D01*
X146010286Y-97528095D01*
X147024381Y-104887333D02*
X147738667Y-104887333D01*
X147881524Y-104934953D01*
X147976762Y-105030191D01*
X148024381Y-105173048D01*
X148024381Y-105268286D01*
X148024381Y-103887333D02*
X148024381Y-104458762D01*
X148024381Y-104173048D02*
X147024381Y-104173048D01*
X147167238Y-104268286D01*
X147262476Y-104363524D01*
X147310095Y-104458762D01*
X145500381Y-104887333D02*
X146214667Y-104887333D01*
X146357524Y-104934953D01*
X146452762Y-105030191D01*
X146500381Y-105173048D01*
X146500381Y-105268286D01*
X145595619Y-104458762D02*
X145548000Y-104411143D01*
X145500381Y-104315905D01*
X145500381Y-104077809D01*
X145548000Y-103982571D01*
X145595619Y-103934952D01*
X145690857Y-103887333D01*
X145786095Y-103887333D01*
X145928952Y-103934952D01*
X146500381Y-104506381D01*
X146500381Y-103887333D01*
X152574667Y-114260381D02*
X152574667Y-114974667D01*
X152527047Y-115117524D01*
X152431809Y-115212762D01*
X152288952Y-115260381D01*
X152193714Y-115260381D01*
X152955619Y-114260381D02*
X153574667Y-114260381D01*
X153241333Y-114641333D01*
X153384191Y-114641333D01*
X153479429Y-114688952D01*
X153527048Y-114736571D01*
X153574667Y-114831810D01*
X153574667Y-115069905D01*
X153527048Y-115165143D01*
X153479429Y-115212762D01*
X153384191Y-115260381D01*
X153098476Y-115260381D01*
X153003238Y-115212762D01*
X152955619Y-115165143D01*
X144700667Y-115530381D02*
X144700667Y-116244667D01*
X144653047Y-116387524D01*
X144557809Y-116482762D01*
X144414952Y-116530381D01*
X144319714Y-116530381D01*
X145605429Y-115863714D02*
X145605429Y-116530381D01*
X145367333Y-115482762D02*
X145129238Y-116197048D01*
X145748286Y-116197048D01*
X148802334Y-107927381D02*
X148469000Y-107451190D01*
X148230905Y-107927381D02*
X148230905Y-106927381D01*
X148611858Y-106927381D01*
X148707096Y-106975000D01*
X148754715Y-107022619D01*
X148802334Y-107117857D01*
X148802334Y-107260714D01*
X148754715Y-107355952D01*
X148707096Y-107403571D01*
X148611858Y-107451190D01*
X148230905Y-107451190D01*
X149754715Y-107927381D02*
X149183286Y-107927381D01*
X149469000Y-107927381D02*
X149469000Y-106927381D01*
X149373762Y-107070238D01*
X149278524Y-107165476D01*
X149183286Y-107213095D01*
X147828095Y-101052381D02*
X147828095Y-101861905D01*
X147875714Y-101957143D01*
X147923333Y-102004762D01*
X148018571Y-102052381D01*
X148209048Y-102052381D01*
X148304286Y-102004762D01*
X148351905Y-101957143D01*
X148399524Y-101861905D01*
X148399524Y-101052381D01*
X149399524Y-102052381D02*
X148828095Y-102052381D01*
X149113809Y-102052381D02*
X149113809Y-101052381D01*
X149018571Y-101195238D01*
X148923333Y-101290476D01*
X148828095Y-101338095D01*
X153074667Y-103353810D02*
X153074667Y-102877619D01*
X153360381Y-103449048D02*
X152360381Y-103115715D01*
X153360381Y-102782381D01*
X153360381Y-102449048D02*
X152360381Y-102449048D01*
X152360381Y-102210953D01*
X152408000Y-102068095D01*
X152503238Y-101972857D01*
X152598476Y-101925238D01*
X152788952Y-101877619D01*
X152931810Y-101877619D01*
X153122286Y-101925238D01*
X153217524Y-101972857D01*
X153312762Y-102068095D01*
X153360381Y-102210953D01*
X153360381Y-102449048D01*
X152360381Y-101591905D02*
X152360381Y-101020476D01*
X153360381Y-101306191D02*
X152360381Y-101306191D01*
X152360381Y-100782381D02*
X152360381Y-100115714D01*
X153360381Y-100544286D01*
X152693714Y-99306190D02*
X153360381Y-99306190D01*
X152312762Y-99544286D02*
X153027048Y-99782381D01*
X153027048Y-99163333D01*
X152455619Y-98830000D02*
X152408000Y-98782381D01*
X152360381Y-98687143D01*
X152360381Y-98449047D01*
X152408000Y-98353809D01*
X152455619Y-98306190D01*
X152550857Y-98258571D01*
X152646095Y-98258571D01*
X152788952Y-98306190D01*
X153360381Y-98877619D01*
X153360381Y-98258571D01*
X152360381Y-97639524D02*
X152360381Y-97544285D01*
X152408000Y-97449047D01*
X152455619Y-97401428D01*
X152550857Y-97353809D01*
X152741333Y-97306190D01*
X152979429Y-97306190D01*
X153169905Y-97353809D01*
X153265143Y-97401428D01*
X153312762Y-97449047D01*
X153360381Y-97544285D01*
X153360381Y-97639524D01*
X153312762Y-97734762D01*
X153265143Y-97782381D01*
X153169905Y-97830000D01*
X152979429Y-97877619D01*
X152741333Y-97877619D01*
X152550857Y-97830000D01*
X152455619Y-97782381D01*
X152408000Y-97734762D01*
X152360381Y-97639524D01*
M02*
