G04 #@! TF.FileFunction,Copper,L1,Top,Signal*
%FSLAX46Y46*%
G04 Gerber Fmt 4.6, Leading zero omitted, Abs format (unit mm)*
G04 Created by KiCad (PCBNEW 4.0.6) date 11/10/17 15:16:46*
%MOMM*%
%LPD*%
G01*
G04 APERTURE LIST*
%ADD10C,0.100000*%
%ADD11R,1.200000X0.900000*%
%ADD12R,1.200000X0.750000*%
%ADD13O,1.000000X1.000000*%
%ADD14O,1.000000X1.100000*%
%ADD15C,1.800000*%
%ADD16R,1.000000X2.000000*%
%ADD17R,0.720000X0.300000*%
%ADD18R,0.300000X0.720000*%
%ADD19R,2.500000X2.500000*%
%ADD20C,1.000000*%
%ADD21C,0.400000*%
%ADD22C,0.250000*%
G04 APERTURE END LIST*
D10*
D11*
X152736000Y-105824000D03*
X150536000Y-105824000D03*
D12*
X149540000Y-97790000D03*
X147640000Y-97790000D03*
D13*
X147572000Y-107856000D03*
D14*
X147572000Y-106586000D03*
D13*
X146048000Y-107856000D03*
D14*
X146048000Y-106586000D03*
D15*
X152400000Y-113030000D03*
X149860000Y-113030000D03*
X147320000Y-113030000D03*
X144780000Y-113030000D03*
D16*
X150495000Y-115570000D03*
X149225000Y-115570000D03*
X147955000Y-115570000D03*
X146685000Y-115570000D03*
D11*
X152736000Y-107348000D03*
X150536000Y-107348000D03*
D17*
X146690000Y-100625000D03*
X146690000Y-101275000D03*
X146690000Y-101925000D03*
X146690000Y-102575000D03*
D18*
X147615000Y-103500000D03*
X148265000Y-103500000D03*
X148915000Y-103500000D03*
X149565000Y-103500000D03*
D17*
X150490000Y-102575000D03*
X150490000Y-101925000D03*
X150490000Y-101275000D03*
X150490000Y-100625000D03*
D18*
X149565000Y-99700000D03*
X148915000Y-99700000D03*
X148265000Y-99700000D03*
X147615000Y-99700000D03*
D19*
X148590000Y-101600000D03*
D20*
X146000000Y-111500000D03*
X144524000Y-100236000D03*
X144780000Y-110490000D03*
X152398000Y-108872000D03*
X151892000Y-103124000D03*
X146556000Y-104300000D03*
D21*
X144780000Y-112720000D02*
X146000000Y-111500000D01*
X144780000Y-113030000D02*
X144780000Y-112720000D01*
X146048000Y-98712000D02*
X148618000Y-98712000D01*
X144524000Y-100236000D02*
X146048000Y-98712000D01*
X148618000Y-98712000D02*
X149540000Y-97790000D01*
X152865000Y-106045000D02*
X152865000Y-107315000D01*
X151470000Y-100625000D02*
X151470000Y-100670000D01*
X152865000Y-102065000D02*
X152865000Y-106045000D01*
X151470000Y-100670000D02*
X152865000Y-102065000D01*
X151470000Y-100625000D02*
X151638000Y-100457000D01*
X151638000Y-100457000D02*
X151638000Y-98806000D01*
X151638000Y-98298000D02*
X151130000Y-97790000D01*
X151638000Y-98806000D02*
X151638000Y-98298000D01*
X151130000Y-97790000D02*
X149540000Y-97790000D01*
X150490000Y-100625000D02*
X151470000Y-100625000D01*
X143510000Y-109220000D02*
X144780000Y-110490000D01*
X143510000Y-99060000D02*
X143510000Y-100965000D01*
X143510000Y-100965000D02*
X143510000Y-109220000D01*
X144780000Y-97790000D02*
X143510000Y-99060000D01*
X147640000Y-97790000D02*
X144780000Y-97790000D01*
X152400000Y-113030000D02*
X152400000Y-113065000D01*
X150112000Y-108872000D02*
X152398000Y-108872000D01*
X147572000Y-107856000D02*
X148080000Y-107856000D01*
X152400000Y-111160000D02*
X152400000Y-113030000D01*
X150112000Y-108872000D02*
X152400000Y-111160000D01*
X149096000Y-108872000D02*
X150112000Y-108872000D01*
X148080000Y-107856000D02*
X149096000Y-108872000D01*
X146048000Y-107856000D02*
X147572000Y-107856000D01*
X150490000Y-101275000D02*
X151059000Y-101275000D01*
X151892000Y-102108000D02*
X151892000Y-103124000D01*
X151059000Y-101275000D02*
X151892000Y-102108000D01*
D22*
X146048000Y-102776000D02*
X146048000Y-103792000D01*
X146048000Y-102776000D02*
X146249000Y-102575000D01*
X146690000Y-102575000D02*
X146249000Y-102575000D01*
X146048000Y-103792000D02*
X146556000Y-104300000D01*
X150536000Y-107348000D02*
X148334000Y-107348000D01*
X148334000Y-107348000D02*
X147572000Y-106586000D01*
X146690000Y-101925000D02*
X145853398Y-101925000D01*
X145230002Y-105768002D02*
X146048000Y-106586000D01*
X145230002Y-102548396D02*
X145230002Y-105768002D01*
X145853398Y-101925000D02*
X145230002Y-102548396D01*
X150536000Y-105824000D02*
X149604000Y-105824000D01*
X147064000Y-105570000D02*
X146048000Y-106586000D01*
X149350000Y-105570000D02*
X147064000Y-105570000D01*
X149604000Y-105824000D02*
X149350000Y-105570000D01*
X144780000Y-102362000D02*
X144780000Y-108204000D01*
X145867000Y-101275000D02*
X144780000Y-102362000D01*
X146690000Y-101275000D02*
X145867000Y-101275000D01*
X149860000Y-110744000D02*
X149860000Y-113030000D01*
X148844000Y-109728000D02*
X149860000Y-110744000D01*
X146304000Y-109728000D02*
X148844000Y-109728000D01*
X144780000Y-108204000D02*
X146304000Y-109728000D01*
X145796000Y-100625000D02*
X145755000Y-100625000D01*
X145755000Y-100625000D02*
X144272000Y-102108000D01*
X147320000Y-111506000D02*
X147320000Y-113030000D01*
X144272000Y-108458000D02*
X147320000Y-111506000D01*
X144272000Y-102108000D02*
X144272000Y-108458000D01*
X146690000Y-100625000D02*
X145796000Y-100625000D01*
M02*
